<svg width="307" height="34" viewBox="0 0 307 34" fill="none" xmlns="http://www.w3.org/2000/svg">
<g clip-path="url(#clip0_48_1300)">
<path d="M66.916 0.021567C66.9202 0.0928194 66.9202 0.168263 66.916 0.239516V33.9294H58.7597C58.6977 33.9294 58.6398 33.9126 58.5903 33.8791C58.5407 33.8455 58.5035 33.791 58.487 33.7324C55.7682 28.2501 53.0494 22.7595 50.3306 17.2689C50.3017 17.1892 50.2521 17.118 50.186 17.0635V33.9084H41.8437V0.185028C41.8395 0.122159 41.8395 0.0592889 41.8437 0.000610352H50.1736L53.2312 6.12413L58.4415 16.6988L58.5448 16.8749V0.021567H66.916Z" fill="white"/>
<path d="M92.0338 0.021567V8.5048H79.5018V14.8588H89.9224V23.3337H79.4894V33.9084H71.1677V0.000610352L92.0338 0.021567Z" fill="white"/>
<path d="M8.41261 0.0216064L8.47459 0.185068C8.86298 0.960462 9.23899 1.73586 9.61499 2.50287L9.70589 2.68729H0.0413818V0.0216064H8.41261Z" fill="white"/>
<path d="M33.4973 0.0216064V1.79034H24.2584L25.1261 0.0216064H33.4973Z" fill="white"/>
<path d="M16.7631 17.0092C17.1101 16.2841 17.4655 15.559 17.7836 14.8381C17.8208 14.8046 17.8663 14.7794 17.9159 14.7668H33.4353V16.9924H16.7631V17.0134V17.0092Z" fill="white"/>
<path d="M16.7548 17.0004C16.4201 17.6919 16.0731 18.3751 15.7342 19.0709C15.7177 19.1254 15.6847 19.1673 15.6351 19.1966C15.5896 19.226 15.5318 19.2343 15.4781 19.226H0.0495605V17.0004H16.7548Z" fill="white"/>
<path d="M17.6224 18.7272H33.4393V21.0659H18.9694C18.9075 21.0743 18.8413 21.0617 18.7876 21.0282C18.7339 20.9947 18.6926 20.9444 18.6719 20.8815C18.3538 20.2277 18.0315 19.5864 17.7133 18.9367L17.6224 18.7314V18.7272Z" fill="white"/>
<path d="M0.0495605 15.2401V12.9139H14.5608C14.6228 12.9055 14.6806 12.9223 14.7343 12.9516C14.7839 12.9852 14.8252 13.0313 14.8459 13.0899C15.1516 13.7522 15.4863 14.406 15.8045 15.0557C15.8334 15.1143 15.8623 15.1772 15.8871 15.2401H0.0495605Z" fill="white"/>
<path d="M13.8873 11.1747H0.0495605V8.74375H12.499C12.5568 8.73117 12.6147 8.74375 12.6684 8.77309C12.718 8.80243 12.7551 8.85272 12.7758 8.90721C13.1105 9.61135 13.4576 10.3029 13.7964 10.9777C13.8212 11.0448 13.8501 11.1118 13.8873 11.1747Z" fill="white"/>
<path d="M33.4394 25.2074H20.9983C20.9363 25.2116 20.8743 25.199 20.8206 25.1655C20.7669 25.132 20.7256 25.0817 20.7049 25.023L19.6843 22.9525C19.6513 22.8938 19.6265 22.8309 19.6017 22.7681H33.4394V25.2116V25.2074Z" fill="white"/>
<path d="M33.4396 10.9151V12.9856H18.7341L18.8168 12.8012L19.6721 11.0408C19.6927 10.9905 19.7258 10.9444 19.7712 10.9151C19.8167 10.8857 19.8704 10.8732 19.9241 10.8732H33.4354V10.9151H33.4396Z" fill="white"/>
<path d="M0.0495605 23.0527V20.9822H14.7839L14.7219 21.1373C14.4244 21.7366 14.1187 22.336 13.8336 22.9479C13.8129 22.994 13.7799 23.0317 13.7385 23.0569C13.6972 23.082 13.6476 23.0904 13.5981 23.0862H0.0495605V23.0569V23.0527Z" fill="white"/>
<path d="M33.4395 26.9843V29.541H23.1511C22.9982 29.541 22.928 29.541 22.866 29.3775C22.5107 28.6314 22.1429 27.9063 21.7834 27.1729L21.7008 26.9884H33.4395V26.9843Z" fill="white"/>
<path d="M11.8172 6.99604H0.0495605V4.4519H10.3917C10.495 4.4519 10.5735 4.4519 10.6355 4.57764C11.0115 5.35304 11.3999 6.12843 11.7759 6.9164L11.8172 7.00023V6.99604Z" fill="white"/>
<path d="M20.618 9.16716L20.8949 8.60971C21.0973 8.18639 21.3246 7.76307 21.5188 7.33555C21.5395 7.27687 21.5808 7.23077 21.6304 7.20143C21.6841 7.17209 21.7419 7.15952 21.8039 7.17209H33.4393V9.16716H20.6222H20.618Z" fill="white"/>
<path d="M12.8915 24.8215C12.8708 24.876 12.846 24.9263 12.8213 24.9766L11.9949 26.6741C11.9949 26.7454 11.9246 26.8208 11.8007 26.8208H0.0495605V24.8467L12.8874 24.8257L12.8915 24.8215Z" fill="white"/>
<path d="M23.8202 31.2888H33.4351V33.9377H25.2787C25.2168 33.9461 25.1548 33.9294 25.1011 33.8958C25.0474 33.8623 25.006 33.812 24.9854 33.7533C24.6176 32.9863 24.2416 32.2319 23.8739 31.4774C23.8532 31.4187 23.8367 31.3559 23.8243 31.293L23.8202 31.2888Z" fill="white"/>
<path d="M11.0032 28.5477V28.6819L10.2057 30.3081C10.1933 30.3542 10.1644 30.3919 10.1231 30.4212C10.0859 30.4464 10.0363 30.459 9.99084 30.4548H0.0618896V28.5603L11.0032 28.5519V28.5477Z" fill="white"/>
<path d="M33.4889 3.55919V5.42014H22.4774L22.527 5.2944L23.3203 3.66817C23.3327 3.62626 23.3616 3.59273 23.3947 3.57177C23.4319 3.55081 23.4732 3.53824 23.5145 3.54243H33.4889V3.55081V3.55919Z" fill="white"/>
<path d="M0.041319 33.9293V32.1815H9.21826L9.15628 32.3366C8.9125 32.8228 8.66872 33.3216 8.4332 33.8078C8.4332 33.8916 8.35056 33.9544 8.239 33.9544H0L0.041319 33.9335V33.9293Z" fill="white"/>
<path d="M173.891 12.5915C173.3 12.1598 172.581 11.9461 171.85 11.9796H169.933V16.8206H171.85C172.577 16.8541 173.296 16.6404 173.891 16.2087C174.156 15.9907 174.362 15.7141 174.499 15.3997C174.635 15.0854 174.697 14.7417 174.676 14.398C174.701 14.0543 174.639 13.7106 174.503 13.3963C174.366 13.0819 174.156 12.8053 173.891 12.5874V12.5915Z" fill="white"/>
<path d="M132.559 15.76C132.795 15.3493 132.915 14.8799 132.915 14.4062C132.915 13.9326 132.791 13.4632 132.559 13.0525C132.307 12.671 131.956 12.3735 131.539 12.1932C131.08 11.9879 130.58 11.8831 130.08 11.8915H128.171V16.9294H130.097C130.597 16.9378 131.097 16.8372 131.555 16.6276C131.964 16.4432 132.312 16.1415 132.555 15.76H132.559Z" fill="white"/>
<path d="M147.009 12.562C146.252 12.1093 145.389 11.8746 144.509 11.8913C143.633 11.8788 142.765 12.1135 142.009 12.562C141.282 13.002 140.683 13.6307 140.274 14.381C139.856 15.1941 139.641 16.0952 139.641 17.0089C139.641 17.9227 139.86 18.8238 140.274 19.6369C140.678 20.3913 141.278 21.02 142.009 21.4601C142.765 21.9128 143.629 22.1433 144.509 22.1307C145.389 22.1475 146.252 21.9128 147.009 21.4601C147.736 21.02 148.331 20.3913 148.744 19.6369C149.161 18.8238 149.376 17.9227 149.376 17.0089C149.376 16.0952 149.157 15.1941 148.744 14.381C148.335 13.6307 147.736 13.002 147.009 12.562Z" fill="white"/>
<path d="M181.659 0.0422363H98.5291V34.0003H181.659L190.1 17.0422L181.659 0.0422363ZM122.085 19.4942C121.833 20.2905 121.428 21.0282 120.891 21.6653C120.358 22.3023 119.697 22.8137 118.953 23.1658C118.135 23.543 117.242 23.7274 116.342 23.7148C115.453 23.7232 114.573 23.5556 113.751 23.2202C112.97 22.9017 112.263 22.4239 111.673 21.8162C111.082 21.2084 110.619 20.4875 110.313 19.6912C109.66 17.9643 109.66 16.0573 110.313 14.3305C110.619 13.5341 111.082 12.8132 111.673 12.2055C112.263 11.5977 112.97 11.1199 113.751 10.8014C114.573 10.4661 115.453 10.2984 116.342 10.3068C117.085 10.2984 117.825 10.4074 118.536 10.6295C119.184 10.8265 119.792 11.145 120.329 11.56C120.87 11.9791 121.329 12.4947 121.684 13.0814L120.581 14.1167C120.176 13.4251 119.589 12.8635 118.887 12.4905C118.098 12.0797 117.222 11.8785 116.338 11.8995C115.482 11.8869 114.643 12.1091 113.9 12.5408C113.16 12.9725 112.544 13.597 112.127 14.3514C111.697 15.1729 111.474 16.0866 111.474 17.0171C111.474 17.9476 111.697 18.8613 112.127 19.6828C112.549 20.433 113.164 21.0533 113.904 21.4808C114.643 21.9084 115.486 22.1221 116.338 22.1054C116.92 22.1095 117.499 22.0131 118.052 21.8162C118.536 21.6359 118.982 21.3593 119.366 21.0072C119.734 20.6635 120.04 20.257 120.275 19.8085C120.511 19.36 120.688 18.878 120.796 18.3793H116.523V16.9291H122.49C122.494 17.8009 122.358 18.6685 122.081 19.4942H122.085ZM133.303 23.5304L129.733 18.3583H128.171V23.5304H126.622V10.4954H130.101C130.869 10.4828 131.634 10.6421 132.332 10.9732C132.964 11.2708 133.506 11.7402 133.894 12.327C134.291 12.9389 134.493 13.664 134.477 14.3975C134.493 15.131 134.291 15.8519 133.894 16.468C133.506 17.0548 132.964 17.5242 132.332 17.8218C132.035 17.9643 131.725 18.0691 131.402 18.132L135.237 23.5136L133.299 23.5346L133.303 23.5304ZM150.525 19.6492C150.215 20.4456 149.752 21.1665 149.161 21.7784C148.57 22.3862 147.868 22.8724 147.087 23.1993C146.269 23.5472 145.385 23.7232 144.496 23.7148C143.608 23.7232 142.728 23.5472 141.906 23.1993C141.129 22.8724 140.422 22.3862 139.832 21.7784C139.241 21.1707 138.778 20.4456 138.468 19.6492C137.811 17.9518 137.811 16.0615 138.468 14.364C138.774 13.5676 139.241 12.8467 139.827 12.239C140.418 11.6312 141.125 11.1492 141.902 10.8265C142.724 10.4786 143.604 10.3026 144.492 10.311C145.381 10.3026 146.265 10.4786 147.083 10.8265C147.847 11.1576 148.537 11.6354 149.124 12.2348C149.711 12.8467 150.174 13.5718 150.492 14.3682C151.149 16.0657 151.149 17.9559 150.492 19.6534H150.521L150.525 19.6492ZM163.693 19.2469C163.697 19.8588 163.594 20.4624 163.387 21.0366C163.193 21.5647 162.892 22.0509 162.503 22.4532C162.115 22.8556 161.644 23.1699 161.123 23.3753C159.966 23.828 158.681 23.828 157.524 23.3753C157.004 23.1699 156.529 22.8514 156.136 22.4448C155.752 22.0425 155.454 21.5605 155.26 21.0366C155.053 20.4624 154.95 19.8588 154.954 19.2469V10.4954H156.516V19.2469C156.483 20.0306 156.739 20.8019 157.231 21.4096C157.805 21.9335 158.553 22.2269 159.326 22.2269C160.098 22.2269 160.846 21.9377 161.421 21.4096C161.912 20.8019 162.169 20.0306 162.135 19.2469V10.4954H163.697V19.2469H163.693ZM175.643 16.4848C175.254 17.0716 174.713 17.541 174.081 17.8386C173.383 18.1655 172.618 18.329 171.85 18.3164H169.932V23.4885H168.371V10.4535H171.85C172.618 10.4409 173.383 10.6002 174.081 10.9313C174.713 11.2289 175.254 11.6983 175.643 12.2851C176.039 12.897 176.242 13.6221 176.225 14.3556C176.254 15.11 176.056 15.8519 175.655 16.489H175.647L175.643 16.4848Z" fill="white"/>
<path d="M212.784 23.7024V10.4998H214.404V23.7024H212.784Z" fill="white"/>
<path d="M217.693 23.7024V10.4998H220.296L225.37 21.4559H225.726V10.4998H227.379V23.7024H224.775L219.66 12.7463H219.305V23.7024H217.689H217.693Z" fill="white"/>
<path d="M230.634 23.7024V10.4998H234.725C235.853 10.4998 236.865 10.7806 237.758 11.338C238.65 11.8955 239.348 12.6792 239.848 13.6852C240.348 14.6911 240.6 15.8311 240.6 17.0969C240.6 18.3627 240.348 19.5069 239.848 20.5086C239.344 21.5145 238.65 22.2983 237.758 22.8558C236.865 23.4174 235.853 23.694 234.725 23.694H230.634V23.7024ZM234.725 22.1181C235.518 22.1181 236.241 21.9085 236.89 21.4852C237.539 21.0619 238.047 20.4751 238.415 19.7207C238.782 18.9662 238.964 18.0944 238.964 17.1011C238.964 16.1077 238.782 15.2318 238.415 14.4815C238.047 13.7313 237.543 13.1403 236.89 12.717C236.237 12.2978 235.518 12.0841 234.725 12.0841H232.254V22.1181H234.725Z" fill="white"/>
<path d="M248.559 23.8739C247.492 23.8739 246.517 23.5931 245.629 23.0356C244.745 22.4782 244.042 21.6818 243.53 20.6508C243.018 19.6197 242.757 18.4378 242.757 17.1049C242.757 15.7721 243.014 14.5901 243.53 13.5591C244.046 12.528 244.745 11.7316 245.629 11.1742C246.513 10.6168 247.492 10.3359 248.559 10.3359C249.625 10.3359 250.62 10.6168 251.505 11.1742C252.389 11.7316 253.091 12.528 253.604 13.5591C254.12 14.5901 254.376 15.7721 254.376 17.1049C254.376 18.4378 254.12 19.6197 253.604 20.6508C253.091 21.6818 252.389 22.4782 251.505 23.0356C250.616 23.5931 249.637 23.8739 248.559 23.8739ZM248.559 22.2896C249.339 22.2896 250.05 22.0758 250.686 21.6483C251.323 21.2208 251.827 20.6131 252.19 19.8293C252.554 19.0455 252.74 18.136 252.74 17.1049C252.74 16.0739 252.558 15.1643 252.19 14.3806C251.827 13.5968 251.323 12.989 250.686 12.5615C250.05 12.134 249.339 11.9203 248.559 11.9203C247.778 11.9203 247.1 12.134 246.459 12.5615C245.815 12.989 245.307 13.5968 244.935 14.3806C244.563 15.1685 244.377 16.0739 244.377 17.1049C244.377 18.136 244.563 19.0455 244.935 19.8293C245.307 20.6172 245.815 21.2208 246.459 21.6483C247.104 22.0758 247.802 22.2896 248.559 22.2896Z" fill="white"/>
<path d="M257.111 23.7024V10.4998H259.714L264.793 21.4559H265.144V10.4998H266.796V23.7024H264.193L259.078 12.7463H258.727V23.7024H257.107H257.111Z" fill="white"/>
<path d="M270.053 23.7024V10.4998H277.953V12.0464H271.668V16.288H277.598V17.8346H271.668V22.1516H277.953V23.6982H270.053V23.7024Z" fill="white"/>
<path d="M284.816 23.8741C283.849 23.8741 283.014 23.6897 282.316 23.3166C281.614 22.9478 281.081 22.449 280.709 21.8287C280.337 21.2042 280.151 20.5252 280.151 19.7833H281.787C281.787 20.2486 281.903 20.6761 282.13 21.0659C282.357 21.4557 282.709 21.7658 283.171 21.9922C283.634 22.2185 284.184 22.3317 284.816 22.3317C285.77 22.3317 286.485 22.1305 286.964 21.7281C287.444 21.3257 287.679 20.8018 287.679 20.1606C287.679 19.6325 287.51 19.1882 287.179 18.8193C286.845 18.4547 286.345 18.1906 285.675 18.0272L283.423 17.4991C282.754 17.323 282.196 17.0841 281.75 16.7824C281.304 16.4806 280.969 16.0992 280.746 15.6423C280.523 15.1855 280.411 14.6322 280.411 13.9909C280.411 13.3119 280.585 12.6958 280.932 12.1426C281.279 11.5893 281.775 11.1492 282.419 10.8223C283.064 10.4954 283.82 10.3319 284.688 10.3319C285.617 10.3319 286.427 10.5121 287.113 10.8684C287.803 11.2247 288.332 11.715 288.704 12.3396C289.076 12.9599 289.262 13.6556 289.262 14.4226H287.588C287.588 13.97 287.473 13.5467 287.245 13.1485C287.018 12.7545 286.683 12.4401 286.25 12.2138C285.816 11.9875 285.295 11.8743 284.688 11.8743C283.857 11.8743 283.208 12.0755 282.746 12.4779C282.283 12.8802 282.047 13.3832 282.047 13.9867C282.047 14.5148 282.204 14.9466 282.51 15.2861C282.82 15.6255 283.304 15.8728 283.96 16.0195L285.878 16.4722C286.683 16.6608 287.34 16.9165 287.849 17.235C288.357 17.5536 288.733 17.9559 288.972 18.4337C289.212 18.9115 289.336 19.4899 289.336 20.1689C289.336 20.8479 289.163 21.506 288.815 22.0634C288.468 22.6209 287.956 23.061 287.283 23.3837C286.609 23.7022 285.787 23.8657 284.82 23.8657L284.816 23.8741Z" fill="white"/>
<path d="M292.088 23.7024V10.4998H293.707V23.7024H292.088Z" fill="white"/>
<path d="M295.563 23.7024L300.062 10.4998H302.537L307 23.7024H305.252L301.459 12.2517H301.124L297.315 23.7024H295.567H295.563ZM298.112 20.3829V18.8531H304.529V20.3829H298.112Z" fill="white"/>
<path d="M201.566 0.147095H200.69V33.8076H201.566V0.147095Z" fill="white"/>
<path d="M201.421 0.298194V33.6611H200.835V0.298194H201.421ZM201.715 0.000610352H200.545V33.9587H201.715V0.000610352Z" fill="white"/>
</g>
<defs>
<clipPath id="clip0_48_1300">
<rect width="307" height="34" fill="white"/>
</clipPath>
</defs>
</svg>
